<svg id="ef155387-c885-4ebf-8cb5-c452ea0af16e" data-name="Layer 1" xmlns="http://www.w3.org/2000/svg" width="1080.97217" height="784.33767" viewBox="0 0 1080.97217 784.33767"><title>forming ideas</title><path d="M448.109,273.77162a104.983,104.983,0,0,1-154.35089-3.3695L59.51392,492.12685,388.90735,840.11916,702.87952,542.92751Z" transform="translate(-59.51392 -57.83116)" fill="#f2f2f2"/><path d="M372.2925,284.01507a91.635,91.635,0,0,0,66.19358-28.15321l-65.31827-69.00641-69.78689,66.057A91.67975,91.67975,0,0,0,372.2925,284.01507Z" transform="translate(-59.51392 -57.83116)" fill="#f2f2f2"/><path d="M886.48608,384.93526a164.83288,164.83288,0,0,1-165,165q-1.41,0-2.82-.03c-3.96-.06-7.87-.26-11.76-.6a165.00737,165.00737,0,1,1,179.58-164.37Z" transform="translate(-59.51392 -57.83116)" fill="#ec5174"/><path d="M817.10608,325.22524a164.07626,164.07626,0,0,0,19.8883-59.07819,164.99942,164.99942,0,0,0-278.01709,96.58936A164.37742,164.37742,0,0,0,658.906,408.30525c3.89013.34,7.8.54,11.76.6q1.41009.03,2.82006.03a164.75722,164.75722,0,0,0,143.62-83.71Z" transform="translate(-59.51392 -57.83116)" opacity="0.1"/><rect x="469.97217" y="488.10409" width="265" height="296" fill="#2f2e41"/><path d="M879.35608,446.53523a165.19361,165.19361,0,0,1-115.61,96.4h36.74v296h-244.42l137.17-237.59,31.43-54.44,2.29-3.97,104.03-180.18Z" transform="translate(-59.51392 -57.83116)" opacity="0.1"/><polygon points="805.472 306.924 943.222 545.514 1080.972 784.104 805.472 784.104 529.972 784.104 667.722 545.514 805.472 306.924" fill="#3f3d56"/><rect x="36.97217" y="782.10409" width="1044" height="2" fill="#2f2e41"/><polygon points="171.505 736.835 169.68 752.045 159.337 756.912 147.777 753.261 139.868 756.912 137.435 742.919 151.428 727.1 171.505 736.835" fill="#9f616a"/><path d="M223.718,806.22529s9.43255-10.99646,9.58345-5.49823,20.8364,24.35854,20.8364,24.35854,32.245,9.73435,7.30076,15.81832-79.7-11.55954-81.52519-15.20992,15.20992-31.63665,17.03511-29.20306S207.8997,807.44209,223.718,806.22529Z" transform="translate(-59.51392 -57.83116)" fill="#2f2e41"/><path d="M246.83711,625.53138s3.65038,28.59466,0,32.85344-1.82519,12.77634,0,13.99313-2.43359,6.084-5.47558,8.51756-7.30076,13.38474-7.30076,13.38474-16.42672,43.19618-16.42672,47.455-7.30076,13.38474-6.69237,16.42672-4.25878,12.77634-3.65038,14.60153-7.90916,18.25191-5.47557,20.6855,35.89542,10.95114,34.07023,5.47557-3.042-12.16794-1.82519-12.16794,6.69237-6.69237,5.47557-9.12595,36.50382-66.31528,36.50382-66.31528Z" transform="translate(-59.51392 -57.83116)" fill="#2f2e41"/><path d="M223.718,806.22529s9.43255-10.99646,9.58345-5.49823,20.8364,24.35854,20.8364,24.35854,32.245,9.73435,7.30076,15.81832-79.7-11.55954-81.52519-15.20992,15.20992-31.63665,17.03511-29.20306S207.8997,807.44209,223.718,806.22529Z" transform="translate(-59.51392 -57.83116)" opacity="0.1"/><path d="M246.83711,625.53138s3.65038,28.59466,0,32.85344-1.82519,12.77634,0,13.99313-2.43359,6.084-5.47558,8.51756-7.30076,13.38474-7.30076,13.38474-16.42672,43.19618-16.42672,47.455-7.30076,13.38474-6.69237,16.42672-4.25878,12.77634-3.65038,14.60153-7.90916,18.25191-5.47557,20.6855,35.89542,10.95114,34.07023,5.47557-3.042-12.16794-1.82519-12.16794,6.69237-6.69237,5.47557-9.12595,36.50382-66.31528,36.50382-66.31528Z" transform="translate(-59.51392 -57.83116)" opacity="0.1"/><polygon points="249.38 729.282 256.072 746.317 253.03 770.044 233.561 768.828 222.61 759.093 222.61 738.408 249.38 729.282" fill="#9f616a"/><path d="M305.24322,807.79836S311.93559,785.89607,315.586,791.98a96.26371,96.26371,0,0,1,6.084,12.16794s29.81145,19.46871,37.72061,19.46871,15.20993,9.73435,4.86718,13.38473-89.43436,8.51756-90.65115,0,1.21679-35.89542,4.86717-32.85344S300.98444,813.88233,305.24322,807.79836Z" transform="translate(-59.51392 -57.83116)" fill="#2f2e41"/><path d="M320.45314,538.27849s26.81615,18.22318,28.03294,20.65677,16.77634,9.916,4,16-46.63446-32.398-46.63446-32.398Z" transform="translate(-59.51392 -57.83116)" fill="#9f616a"/><path d="M307.06841,502.99146s19.4687,37.72062,15.81832,38.93741-18.25191,8.51756-18.25191,8.51756l-6.69236-38.329Z" transform="translate(-59.51392 -57.83116)" fill="#575a88"/><path d="M307.06841,502.99146s19.4687,37.72062,15.81832,38.93741-18.25191,8.51756-18.25191,8.51756l-6.69236-38.329Z" transform="translate(-59.51392 -57.83116)" opacity="0.1"/><path d="M305.85162,534.62811s4.25878,31.63664,2.43358,38.329,1.2168,107.07787-1.21679,112.55345-4.25878,40.76259-4.25878,45.02137,4.86718,38.93741,6.084,41.9794,4.86718,13.38473,3.042,18.25191-26.76947,17.03511-30.41985,12.77633-.6084-17.64351-3.65039-18.25191-6.69236-29.20305-6.69236-29.20305l-20.0771-111.945s-37.72062-93.69314-29.20306-102.8191S305.85162,534.62811,305.85162,534.62811Z" transform="translate(-59.51392 -57.83116)" fill="#2f2e41"/><circle cx="223.82701" cy="231.00455" r="29.81145" fill="#9f616a"/><path d="M294.29207,313.1716s-9.73435,25.55267-8.51755,31.02824-28.59466-9.73435-28.59466-9.73435,1.82519-29.81145,0-37.72061S294.29207,313.1716,294.29207,313.1716Z" transform="translate(-59.51392 -57.83116)" fill="#9f616a"/><path d="M212.54793,479.63509c.13369,5.10446.21894,8.14645.21894,8.14645s-1.82519,27.98626,1.2168,37.11222,3.042,15.81832,4.86717,21.90229c.53532,1.77042,7.818,2.71951,18.045,3.13931,9.38158.38329,21.23923.32856,32.62232.06691,18.84812-.438,36.41871-1.44795,39.37543-1.98943,6.69237-1.21679-1.21679-11.55954,1.2168-17.03511s-4.25878-75.44123-4.25878-75.44123.60839-39.54581-2.43359-54.75573S288.8165,361.235,286.38291,358.193s-.60839-4.86718,4.86718-8.51756,0-17.64352,0-17.64352c-10.34275-8.51755-36.50382-9.73435-36.50382-9.73435s-40.1542,41.371-42.58779,49.88856c-1.47228,5.147-.943,46.26249-.29811,78.00864C212.10976,462.13759,212.37148,472.76021,212.54793,479.63509Z" transform="translate(-59.51392 -57.83116)" fill="#575a88"/><path d="M263.87222,555.31361s23.11909,47.455,4.86718,50.49695-27.37787-43.19619-27.37787-43.19619Z" transform="translate(-59.51392 -57.83116)" fill="#9f616a"/><path d="M311.21569,273.72511c1.05424-5.113-2.85338-9.89261-6.9689-13.10463A50.92791,50.92791,0,0,0,272.91473,249.936c-7.97852.04334-16.21279,2.1539-22.24315,7.37822-7.03378,6.0936-10.24229,15.8656-9.65173,25.15307s4.62973,18.09625,10.078,25.641c2.61489,3.62111,6.81449,7.36957,10.99294,5.79138a10.21705,10.21705,0,0,0,4.06611-3.43446A63.066,63.066,0,0,0,273.1271,299.753c1.49544-2.906,2.7908-5.9689,4.91025-8.45665s5.30479-4.35878,8.5423-3.91205c2.67429.369,5.29759,2.25159,7.84823,1.36712,2.83766-.984,3.52361-4.61263,3.74928-7.60757.24736-3.28274.07217-7.08534.9837-10.189C300.15785,271.48715,310.72573,276.175,311.21569,273.72511Z" transform="translate(-59.51392 -57.83116)" fill="#2f2e41"/><path d="M212.54793,479.63509c6.814,24.57317,22.4437,65.98676,23.338,67.76935.22518.4563.57795,1.35063,1.00989,2.53092,9.38158.38329,21.23923.32856,32.62232.06691-1.76445-4.61162-3.82076-9.06509-3.82076-10.507,0-3.042-14.60152-81.5252-14.60152-81.5252s11.55954-34.67862,21.90229-63.88168-30.724-23.42329-30.724-23.42329c-21.90229-5.47557-25.85687,3.95458-25.85687,3.95458s-1.92857,51.28787-4.55689,75.57506c-.67539,6.22393-1.39325,10.67131-2.13548,12.03411C208.75139,464.01146,210.06563,470.716,212.54793,479.63509Z" transform="translate(-59.51392 -57.83116)" opacity="0.1"/><path d="M251.09589,350.89221s27.98626,11.55954,17.64351,40.7626-21.90229,63.88169-21.90229,63.88169,14.60152,78.48321,14.60152,81.5252,9.126,19.4687,5.47558,22.51068-27.98626,9.126-28.59466,6.084-5.47557-18.25191-6.69237-20.68549-29.81145-78.48322-26.16107-85.17558c2.68627-4.92484,5.04308-50.04449,6.10062-73.53425a38.621,38.621,0,0,1,20.13441-32.51571C237.37349,350.739,243.97764,349.11265,251.09589,350.89221Z" transform="translate(-59.51392 -57.83116)" fill="#575a88"/><rect x="267.97217" y="471.10409" width="36" height="36" fill="#ec5174"/><circle cx="285.97217" cy="460.10409" r="11" fill="#3f3d56"/><circle cx="711.11943" cy="56.01524" r="54.31516" fill="#ff6584"/><path d="M770.48608,150.94569c0,40.98067-24.36235,55.28958-54.41484,55.28958s-54.41484-14.30891-54.41484-55.28958,54.41484-93.11453,54.41484-93.11453S770.48608,109.965,770.48608,150.94569Z" transform="translate(-59.51392 -57.83116)" fill="#f2f2f2"/><polygon points="654.575 142.135 655.132 107.838 678.325 65.408 655.22 102.458 655.47 87.037 671.455 56.339 655.537 82.956 655.537 82.956 655.987 55.22 673.104 30.78 656.058 50.858 656.339 0 654.57 67.327 654.716 64.549 637.313 37.912 654.437 69.881 652.815 100.858 652.767 100.035 632.705 72.003 652.706 102.94 652.503 106.814 652.467 106.872 652.484 107.19 648.37 185.78 653.866 185.78 654.526 145.187 674.478 114.326 654.575 142.135" fill="#3f3d56"/><path d="M901.60331,212.1989c-13.0024,38.86325-40.64594,44.70313-69.14565,35.168s-47.06336-30.8344-34.061-69.69765,81.1468-71.03864,81.1468-71.03864S914.6057,173.33564,901.60331,212.1989Z" transform="translate(-59.51392 -57.83116)" fill="#f2f2f2"/><polygon points="773.053 182.962 784.463 150.614 819.92 117.734 786.253 145.539 791.384 130.994 816.282 106.954 792.741 127.145 792.741 127.145 801.969 100.985 825.955 83.239 803.42 96.871 819.823 48.73 796.784 112.017 797.803 109.429 789.751 78.647 795.846 114.397 784.48 143.259 784.696 142.464 774.564 109.515 783.716 145.199 782.295 148.808 782.242 148.852 782.157 149.159 753.32 222.383 758.533 224.127 772.038 185.84 800.751 162.904 773.053 182.962" fill="#3f3d56"/><path d="M631.50463,180.92778c14.73823,38.23871-2.848,60.35189-30.88976,71.15992s-55.92007,6.21815-70.6583-32.02056S547.243,113.61307,547.243,113.61307,616.7664,142.68906,631.50463,180.92778Z" transform="translate(-59.51392 -57.83116)" fill="#f2f2f2"/><polygon points="536.997 189.12 525.182 156.917 531.564 108.985 523.329 151.866 518.016 137.386 521.891 102.993 516.611 133.554 516.611 133.554 507.056 107.512 514.238 78.552 505.554 103.417 487.526 55.86 510.088 119.319 509.225 116.675 483.407 98.078 510.882 121.75 520.509 151.237 520.169 150.487 491.368 131.546 521.157 153.219 522.361 156.907 522.348 156.974 522.478 157.265 546.903 232.076 552.032 230.1 538.048 191.985 545.567 156.014 536.997 189.12" fill="#3f3d56"/><path d="M515.93887,505.835c-3.37171,5.37839-7.74636,5.2519-11.69052,2.77931s-5.96425-6.355-2.59254-11.73335,14.80259-7.74354,14.80259-7.74354S519.31058,500.45663,515.93887,505.835Z" transform="translate(-59.51392 -57.83116)" fill="#ec5174"/><path d="M918.069,344.64253c.62394,6.31714-2.91364,8.89378-7.54621,9.35133s-8.60587-1.37723-9.22981-7.69437,6.97032-15.182,6.97032-15.182S917.445,338.32539,918.069,344.64253Z" transform="translate(-59.51392 -57.83116)" fill="#ec5174"/><path d="M498.0026,391.28842c-3.37171,5.37839-7.74636,5.2519-11.69051,2.77931s-5.96426-6.35495-2.59255-11.73335,14.80259-7.74355,14.80259-7.74355S501.37431,385.91,498.0026,391.28842Z" transform="translate(-59.51392 -57.83116)" fill="#ec5174"/></svg>